<?xml version="1.0" encoding="utf-8"?>
<!-- Generator: Adobe Illustrator 23.0.3, SVG Export Plug-In . SVG Version: 6.00 Build 0)  -->
<svg version="1.1" id="Calque_1" xmlns="http://www.w3.org/2000/svg" xmlns:xlink="http://www.w3.org/1999/xlink" x="0px" y="0px"
	 viewBox="0 0 581.5 581.5" style="enable-background:new 0 0 581.5 581.5;" xml:space="preserve">
<style type="text/css">
	.st0{fill:#0D0A43;}
	.st1{fill:#FFEAA7;}
</style>
<title>Fichier 1</title>
<g>
	<g id="CERCLE_avion">
		<circle class="st0" cx="290.8" cy="290.8" r="290.8"/>
		<circle class="st1" cx="290.8" cy="290.8" r="193.7"/>
		<path class="st0" d="M385.1,353.8l-1.6-4.2l-8.1-22c0-0.1-0.1-0.3-0.1-0.4l-8.1-22l0,0l-18.1-49.2l-3.6-9.7
			c-0.2-1.3,0.5-2.4,0.5-2.4l28.9-47c7.4-10.6,8.5-22.6,2.5-26.8l-0.2-0.1c-6.1-4.2-17,0.9-24.4,11.5l-34.4,43.1c0,0-0.7,1.1-2,1.3
			l-6-0.1v0l-57.1-0.3l-16.5-0.1l-30.9-0.1l-9.1,0c0,0,0,0,0,0c-7.7-0.2-18.8-0.1-24.6,2.9c-8.2,4.3-12.7,8.5-16.2,13.2
			c-1.3,1.6-2.1,2.1,0.9,2.8c1.3,0.3,99.3,25.2,105.3,27.4c5.7,2.1,16,4.3,14.4,9.1c-0.6,1.9-29.1,61.6-36,67.4
			c-6.9,5.7-13.3,6.1-30.2,5.9c-16.8-0.2-22.7-0.3-31.3,10.3c0,0-4.4,4.3-2.4,4.8c2,0.4,30.2,9.1,37,12c5.9,2.5,6.9,2.9,6.3,4.6
			c-0.6,1.8-4,10-2.2,11.5l0.1,0.1c2,1.3,8.5-4.7,10-5.9c1.5-1.2,1.9-1,6.5,4.3c4.9,5.6,22.8,29.1,23.8,30.8
			c1.1,1.7,3.6-3.9,3.6-3.9c7-11.7,4.9-17.2-1-32.9c-5.9-15.7-7.8-21.9-4.7-30.3c3.1-8.4,48.9-54.8,51.1-56.8
			c3.3-3,9.3,5.2,13.5,10.5c4,5,60.8,88.6,61.5,89.7c0.7,1.1,1.6,2.2,3.4-0.9c2.3-4,4.8-7.8,6.2-18.1c0.9-6.2-2.2-16.7-4.9-24.3
			C386.3,357.1,385.6,355.3,385.1,353.8z"/>
	</g>
	<g id="MADE_IN">
		<path class="st1" d="M175.2,106.3l-17.1-23.4l-0.7,23.1l-0.4,0.3l-22-6.5l17,23.4l-10.9,8l-29.4-40.4l11.6-8.4l22.2,6.8l0.6-23.4
			l10.8-7.9l29.5,40.3L175.2,106.3z"/>
		<path class="st1" d="M228.6,72.5l-23.6,8l-1.1,11l-13.7,4.8l6.7-55.2l13.8-4.8L251,75.2l-15,5.2L228.6,72.5z M206.2,68.8l14.1-4.9
			L208,50.7L206.2,68.8z"/>
		<path class="st1" d="M256.3,74.8L253.2,25l17.8-1.1c17.7-1.1,28.9,6.4,29.9,22.4c0.9,15.3-9,26.3-26.8,27.4L256.3,74.8z
			 M273.4,61.9c9.3-0.6,13.9-6.1,13.4-14.4c-0.5-8-5.6-12.4-15.1-11.8l-4.1,0.2l1.6,26.2L273.4,61.9z"/>
		<path class="st1" d="M308.9,73.2l8-49.3l34.8,5.6l-1.9,11.7l-21.4-3.5l-1.2,7.4l20.1,3.2l-1.8,11l-20.1-3.2l-1.2,7.6l21.3,3.4
			l-1.9,11.7L308.9,73.2z"/>
		<path class="st1" d="M376.7,90.6l21.2-45.2l12.8,6l-21.2,45.2L376.7,90.6z"/>
		<path class="st1" d="M428.5,123.1l-2.1-36.5l-16.6,22.7l-10.9-8L428.4,61l10.1,7.4l2.4,36.4l16.5-22.5l11.1,8.2L439,130.8
			L428.5,123.1z"/>
	</g>
	<g id="AIRFRANCE.COM">
		<path class="st1" d="M49.6,378.3l-6.8-22.4l-10.4-1.4l-4.1-13l51.8,8l4.1,13.2l-37.8,36.6L41.9,385L49.6,378.3z M53.8,357.3
			l4.2,13.5l12.8-11.2L53.8,357.3z"/>
		<path class="st1" d="M51.6,409.2l40.9-23.2l6.6,11.6l-40.9,23.2L51.6,409.2z"/>
		<path class="st1" d="M99.5,450.4l-4.8,22.8L85,460.6l4.8-19.7l-2.3-3l-12.5,9.7l-7.9-10.2l37.2-28.7l12.8,16.6
			c6.9,9,7.9,18.9,0.2,24.8C112,454.2,105.4,453.9,99.5,450.4z M103.9,425.2l-8.3,6.4l4.9,6.3c1.9,2.5,5.2,3.5,7.9,1.5
			s2.4-5.4,0.5-7.9L103.9,425.2z"/>
		<path class="st1" d="M105,482.7l30.8-35.6l24.1,20.8l-7.3,8.4l-14.4-12.4l-6.4,7.4l13.3,11.5l-7.1,8.2l-13.3-11.5l-10.1,11.6
			L105,482.7z"/>
		<path class="st1" d="M179.7,513.5l4.7,22.8l-13.9-7.7l-3.5-20l-3.3-1.8l-7.7,13.9l-11.3-6.2l22.7-41.2l18.4,10.1
			c10,5.5,14.8,14.1,10.1,22.6C192.7,512,186.5,514.3,179.7,513.5z M173.7,488.6l-5.1,9.2l7,3.9c2.8,1.5,6.2,1.2,7.8-1.8
			s0-5.9-2.7-7.4L173.7,488.6z"/>
		<path class="st1" d="M233,541.9l-22.6-6.4l-6.8,8l-13.1-3.6l34.8-39.2l13.3,3.7l10.3,51.6l-14.4-4L233,541.9z M217.7,527l13.6,3.8
			l-2.5-16.8L217.7,527z"/>
		<path class="st1" d="M294.5,557.4l-21.2-27.1l-0.8,26.5l-12.7-0.4l1.3-47l11.8,0.3l21.4,27l0.7-26.3l13,0.4l-1.3,47L294.5,557.4z"
			/>
		<path class="st1" d="M368.6,537.1c-3.3,7.6-10,13-18.1,14.7c-14.7,3.2-28.2-4.5-31.2-18.7c-2.9-13.5,6.1-26.1,20.2-29.1
			c7.7-1.5,15.7,0.3,22,5.1l-7.2,10.3c-3.2-3.1-7.8-4.4-12.1-3.5c-6.5,1.4-11.6,7.7-10.1,14.5c1.6,7.4,8.9,10.9,15.4,9.5
			c5.5-1.2,8.4-4.5,10.3-8.6L368.6,537.1z"/>
		<path class="st1" d="M385.5,540.6l-19.2-43l30.4-13.6l4.5,10.2l-18.6,8.3l2.9,6.4l17.5-7.8l4.3,9.6l-17.5,7.8l2.9,6.6l18.5-8.3
			l4.5,10.2L385.5,540.6z"/>
		<path class="st1" d="M437.1,515.1c-3,2.2-7.3,1.6-9.6-1.5c-0.1-0.2-0.3-0.4-0.4-0.5c-2-3.1-0.9-7.3,2.5-9.5c3.2-2.1,7.4-1.2,9.5,2
			C441.2,508.8,440.3,513,437.1,515.1L437.1,515.1z"/>
		<path class="st1" d="M481.9,464.7c1,8.2-2.1,16.3-8.2,21.8c-11.1,10.2-26.6,10.3-36.4-0.4c-9.3-10.2-7.9-25.6,2.7-35.3
			c5.9-5.2,13.8-7.7,21.6-6.7l-1,12.5c-4.3-1.1-8.9,0.1-12.2,3.1c-4.9,4.5-6.1,12.5-1.5,17.6c5.1,5.6,13.2,4.9,18.1,0.5
			c4.2-3.8,5-8.2,4.5-12.6L481.9,464.7z"/>
		<path class="st1" d="M471.5,413.9c7.8-11.5,23.2-15,34.5-7.3c11.3,7.7,13.8,23.5,6,35s-23.3,14.8-34.7,7S463.7,425.4,471.5,413.9z
			 M502,434.8c4-5.9,2.7-12.9-3.6-17.1c-5.9-4-13.1-2.8-17.1,3c-3.9,5.5-2.5,13.1,3,16.9c0.1,0.1,0.2,0.2,0.3,0.2
			C490.9,442.1,498.2,440.4,502,434.8z"/>
		<path class="st1" d="M546.4,365.1l-25.8-9l11.8,18.3l-0.2,0.5l-20.5,6.8l25.9,9l-4.2,12l-44.4-15.4l4.4-12.7l20.8-6.6L502,349.3
			l4.1-11.9l44.4,15.4L546.4,365.1z"/>
	</g>
</g>
</svg>
